{"title":"Malang - Full Video *HD 1080p UPSCALED* - DHOOM 3 - Amir, Katrin","uid":9464320,"size":177653847,"categoryP":"video","categoryS":"music_videos","magnet":"?xt=urn:btih:cd200ed2107761133df301ab65414411bf83d4ba&amp;dn=Malang+-+Full+Video+%2AHD+1080p+UPSCALED%2A+-+DHOOM+3+-+Amir%2C+Katrin&amp;tr=udp%3A%2F%2Ftracker.openbittorrent.com%3A80&amp;tr=udp%3A%2F%2Fopen.demonii.com%3A1337&amp;tr=udp%3A%2F%2Ftracker.coppersurfer.tk%3A6969&amp;tr=udp%3A%2F%2Fexodus.desync.com%3A6969","seeders":1,"leechers":1,"uploader":"Palash995","files":1,"time":1389423292,"description":"[center][b]Malang - Full Video *HD 1080p UPSCALED* - DHOOM 3 - Amir, Katrina\n\n\n[img]http://tollywood.net/telugu/Reviews/539636575234b1e80742ea2aa5ae7ec9.jpg[/img]\n\nDHOOM:3. Starring Aamir Khan, Abhishek Bachchan, Katrina Kaif &amp; Uday Chopra. \n\nSong: Malang\nSingers: Siddharth Mahadevan &amp; Shilpa Rao\nMusic: Pritam\nLyrics: Sameer Anjaan\n\nProduced by Aditya Chopra, DHOOM:3 is written and directed by Vijay Krishna Acharya, who had also written DHOOM &amp; DHOOM:2. Apart from Aamir Khan, who plays the anti-hero in the film, and Katrina Kaif, both Abhishek Bachchan and Uday Chopra will continue in their now iconic roles of Jai Dixit and Ali.\n\nScreenshots:-\n\n\n\n\n\n\n\nMedia Info:-\n\nGeneral\nComplete name                            : Malang - Full Video HD 1080p - DHOOM 3 - Amir, Katrina - {DAKU RG} {GreatPalash}.mp4\nFormat                                   : MPEG-4\nFormat profile                           : Base Media\nCodec ID                                 : isom\nFile size                                : 169 MiB\nDuration                                 : 5mn 37s\nOverall bit rate mode                    : Variable\nOverall bit rate                         : 4 216 Kbps\nWriting application                      : Lavf53.31.100\n\nVideo\nID                                       : 1\nFormat                                   : AVC\nFormat/Info                              : Advanced Video Codec\nFormat profile                           : &lt;a class=&quot;__cf_email__&quot; href=&quot;/cdn-cgi/l/email-protection&quot; data-cfemail=&quot;c68eafa1ae868af2e8f7&quot;&gt;[email&amp;#160;protected]&lt;/a&gt;&lt;script cf-hash='f9e31' type=&quot;text/javascript&quot;&gt;\n/* &lt;![CDATA[ */!function(){try{var t=&quot;currentScript&quot;in document?document.currentScript:function(){for(var t=document.getElementsByTagName(&quot;script&quot;),e=t.length;e--;)if(t[e].getAttribute(&quot;cf-hash&quot;))return t[e]}();if(t&amp;&amp;t.previousSibling){var e,r,n,i,c=t.previousSibling,a=c.getAttribute(&quot;data-cfemail&quot;);if(a){for(e=&quot;&quot;,r=parseInt(a.substr(0,2),16),n=2;a.length-n;n+=2)i=parseInt(a.substr(n,2),16)^r,e+=String.fromCharCode(i);e=document.createTextNode(e),c.parentNode.replaceChild(e,c)}}}catch(u){}}();/* ]]&gt; */&lt;/script&gt;\nFormat settings, CABAC                   : Yes\nFormat settings, ReFrames                : 3 frames\nCodec ID                                 : avc1\nCodec ID/Info                            : Advanced Video Coding\nDuration                                 : 5mn 37s\nBit rate mode                            : Variable\nBit rate                                 : 4 084 Kbps\nMaximum bit rate                         : 19.2 Mbps\nWidth                                    : 1 920 pixels\nHeight                                   : 1 080 pixels\nDisplay aspect ratio                     : 16:9\nFrame rate mode                          : Constant\nFrame rate                               : 24.000 fps\nStandard                                 : NTSC\nColor space                              : YUV\nChroma subsampling                       : 4:2:0\nBit depth                                : 8 bits\nScan type                                : Progressive\nBits/(Pixel*Frame)                       : 0.082\nStream size                              : 164 MiB (97%)\nColor primaries                          : BT.709\nTransfer characteristics                 : BT.709\nMatrix coefficients                      : BT.709\n\nAudio\nID                                       : 2\nFormat                                   : AAC\nFormat/Info                              : Advanced Audio Codec\nFormat profile                           : LC\nCodec ID                                 : 40\nDuration                                 : 5mn 37s\nBit rate mode                            : Constant\nBit rate                                 : 126 Kbps\nChannel(s)                               : 2 channels\nChannel positions                        : Front: L R\nSampling rate                            : 44.1 KHz\nCompression mode                         : Lossy\nStream size                              : 5.05 MiB (3%)\n\n\n[IMG]http://imageshack.us/a/img89/4822/zka.gif[/IMG]\n\n[IMG]http://imageshack.us/a/img200/185/tj8.gif[/IMG]\n\n[IMG]http://imageshack.us/a/img593/9603/ua8.gif[/IMG]\n\n[IMG]http://imageshack.us/a/img707/5608/ysmp.png[/IMG][/b][/center]","torrent":{"xt":"urn:btih:cd200ed2107761133df301ab65414411bf83d4ba","amp;dn":"Malang+-+Full+Video+%2AHD+1080p+UPSCALED%2A+-+DHOOM+3+-+Amir%2C+Katrin","amp;tr":["udp%3A%2F%2Ftracker.openbittorrent.com%3A80","udp%3A%2F%2Fopen.demonii.com%3A1337","udp%3A%2F%2Ftracker.coppersurfer.tk%3A6969","udp%3A%2F%2Fexodus.desync.com%3A6969"],"infoHash":"cd200ed2107761133df301ab65414411bf83d4ba","infoHashBuffer":{"type":"Buffer","data":[205,32,14,210,16,119,97,19,61,243,1,171,101,65,68,17,191,131,212,186]},"announce":[],"urlList":[]}}